<svg xmlns="http://www.w3.org/2000/svg" xmlns:xlink="http://www.w3.org/1999/xlink" preserveAspectRatio="xMidYMid" width="64" height="64" viewBox="0 0 64 64">
  <defs>
    <style>
      .cls-1 {
        fill: #041b6a;
        fill-rule: evenodd;
      }
    </style>
  </defs>
  <path d="M62.833,60.466 C61.584,61.789 59.815,62.152 58.881,61.277 L48.271,51.326 C46.050,52.581 43.488,53.307 40.752,53.307 C32.312,53.307 25.470,46.488 25.470,38.076 C25.470,29.665 32.312,22.845 40.752,22.845 C49.193,22.845 56.035,29.665 56.035,38.076 C56.035,41.371 54.974,44.414 53.189,46.906 L63.405,56.485 C64.338,57.361 64.082,59.143 62.833,60.466 ZM40.752,27.923 C35.126,27.923 30.564,32.468 30.564,38.076 C30.564,43.684 35.126,48.230 40.752,48.230 C46.379,48.230 50.941,43.684 50.941,38.076 C50.941,32.468 46.379,27.923 40.752,27.923 ZM10.188,45.692 L22.923,45.692 L22.923,50.769 L10.188,50.769 L10.188,45.692 ZM10.188,35.538 L10.188,30.461 L20.376,30.461 L20.376,35.538 L10.188,35.538 ZM10.188,12.691 L45.847,12.691 L45.847,17.769 L10.188,17.769 L10.188,12.691 ZM50.941,23.548 L50.941,7.615 C50.941,6.213 49.800,5.076 48.394,5.076 L7.641,5.076 C6.234,5.076 5.094,6.213 5.094,7.615 L5.094,58.384 C5.094,59.786 6.234,60.923 7.641,60.923 L48.394,60.923 C48.825,60.923 49.226,60.805 49.582,60.616 C51.001,63.486 53.139,65.303 55.422,65.095 C54.954,65.644 54.266,65.999 53.488,65.999 L2.547,65.999 C1.140,65.999 -0.000,64.863 -0.000,63.461 L-0.000,2.538 C-0.000,1.136 1.140,-0.001 2.547,-0.001 L53.488,-0.001 C54.894,-0.001 56.035,1.136 56.035,2.538 L56.035,28.311 C54.302,26.155 52.434,24.462 50.941,23.548 Z" class="cls-1"/>
</svg>
