<svg xmlns="http://www.w3.org/2000/svg" xmlns:xlink="http://www.w3.org/1999/xlink" preserveAspectRatio="xMidYMid" width="16" height="16" viewBox="0 0 16 16">
  <defs>
    <style>
      .cls-1 {
        fill: #041b6a;
        fill-rule: evenodd;
      }
    </style>
  </defs>
  <path d="M15.429,6.384 L0.571,6.384 C0.256,6.384 -0.000,6.143 -0.000,5.846 C-0.000,5.549 0.256,5.308 0.571,5.308 L15.429,5.308 C15.744,5.308 16.000,5.549 16.000,5.846 C16.000,6.143 15.744,6.384 15.429,6.384 ZM15.429,2.077 L0.571,2.077 C0.256,2.077 -0.000,1.836 -0.000,1.538 C-0.000,1.241 0.256,1.000 0.571,1.000 L15.429,1.000 C15.744,1.000 16.000,1.241 16.000,1.538 C16.000,1.836 15.744,2.077 15.429,2.077 ZM0.571,9.615 L15.429,9.615 C15.744,9.615 16.000,9.856 16.000,10.154 C16.000,10.451 15.744,10.692 15.429,10.692 L0.571,10.692 C0.256,10.692 -0.000,10.451 -0.000,10.154 C-0.000,9.856 0.256,9.615 0.571,9.615 ZM0.571,13.923 L9.143,13.923 C9.458,13.923 9.714,14.164 9.714,14.461 C9.714,14.759 9.458,15.000 9.143,15.000 L0.571,15.000 C0.256,15.000 -0.000,14.759 -0.000,14.461 C-0.000,14.164 0.256,13.923 0.571,13.923 Z" class="cls-1"/>
</svg>
