<svg xmlns="http://www.w3.org/2000/svg" xmlns:xlink="http://www.w3.org/1999/xlink" preserveAspectRatio="xMidYMid" width="64" height="64" viewBox="0 0 64 64">
  <defs>
    <style>
      .cls-1 {
        fill: #041b6a;
        fill-rule: evenodd;
      }
    </style>
  </defs>
  <path d="M61.714,24.692 L2.285,24.692 C1.023,24.692 -0.000,23.676 -0.000,22.422 C-0.000,21.169 1.023,20.153 2.285,20.153 L61.714,20.153 C62.977,20.153 64.000,21.169 64.000,22.422 C64.000,23.676 62.977,24.692 61.714,24.692 ZM61.714,6.538 L2.285,6.538 C1.023,6.538 -0.000,5.522 -0.000,4.269 C-0.000,3.016 1.023,1.999 2.285,1.999 L61.714,1.999 C62.977,1.999 64.000,3.016 64.000,4.269 C64.000,5.522 62.977,6.538 61.714,6.538 ZM2.285,38.307 L61.714,38.307 C62.977,38.307 64.000,39.323 64.000,40.576 C64.000,41.829 62.977,42.846 61.714,42.846 L2.285,42.846 C1.023,42.846 -0.000,41.829 -0.000,40.576 C-0.000,39.323 1.023,38.307 2.285,38.307 ZM2.285,56.461 L36.571,56.461 C37.834,56.461 38.857,57.477 38.857,58.730 C38.857,59.984 37.834,60.999 36.571,60.999 L2.285,60.999 C1.023,60.999 -0.000,59.984 -0.000,58.730 C-0.000,57.477 1.023,56.461 2.285,56.461 Z" class="cls-1"/>
</svg>
