<svg xmlns="http://www.w3.org/2000/svg" xmlns:xlink="http://www.w3.org/1999/xlink" preserveAspectRatio="xMidYMid" width="64" height="64" viewBox="0 0 64 64">
  <defs>
    <style>
      .cls-1 {
        fill: #041b6a;
        fill-rule: evenodd;
      }
    </style>
  </defs>
  <path d="M61.091,46.669 L32.000,46.669 L29.943,48.727 C30.211,48.459 30.395,48.149 30.539,47.825 L31.804,46.809 C31.866,46.764 31.915,46.714 31.969,46.669 L30.777,46.669 C30.780,47.069 30.702,47.459 30.539,47.825 L11.636,63.015 L11.636,46.669 L2.909,46.669 C1.302,46.669 -0.000,45.365 -0.000,43.757 L-0.000,5.910 C-0.000,4.303 1.302,2.999 2.909,2.999 L61.091,2.999 C62.697,2.999 64.000,4.303 64.000,5.910 L64.000,43.757 C64.000,45.365 62.697,46.669 61.091,46.669 ZM15.976,20.363 C13.308,20.363 11.145,22.528 11.145,25.197 C11.145,27.867 13.308,30.031 15.976,30.031 C18.643,30.031 20.806,27.867 20.806,25.197 C20.806,22.528 18.643,20.363 15.976,20.363 ZM32.703,20.363 C30.035,20.363 27.872,22.528 27.872,25.197 C27.872,27.867 30.035,30.031 32.703,30.031 C35.371,30.031 37.533,27.867 37.533,25.197 C37.533,22.528 35.371,20.363 32.703,20.363 ZM49.430,20.363 C46.762,20.363 44.600,22.528 44.600,25.197 C44.600,27.867 46.762,30.031 49.430,30.031 C52.098,30.031 54.260,27.867 54.260,25.197 C54.260,22.528 52.098,20.363 49.430,20.363 Z" class="cls-1"/>
</svg>
