<svg xmlns="http://www.w3.org/2000/svg" xmlns:xlink="http://www.w3.org/1999/xlink" preserveAspectRatio="xMidYMid" width="64" height="64" viewBox="0 0 64 64">
  <defs>
    <style>
      .cls-1 {
        fill: #041b6a;
        fill-rule: evenodd;
      }
    </style>
  </defs>
  <path d="M46.880,61.988 L29.897,49.262 L22.641,53.760 C22.433,53.888 22.203,53.951 21.975,53.951 C21.544,53.951 21.124,53.731 20.882,53.333 C20.829,53.245 20.812,53.147 20.781,53.053 C20.664,52.857 20.579,52.641 20.579,52.395 L20.579,42.280 L-0.000,26.860 L64.001,3.013 L46.880,61.988 ZM45.458,57.700 L59.410,9.642 L24.579,42.055 L45.458,57.700 ZM23.138,50.415 L27.679,47.600 L23.138,44.198 L23.138,50.415 ZM22.485,40.486 L56.969,8.394 L5.333,27.633 L22.485,40.486 Z" class="cls-1"/>
</svg>
