<svg xmlns="http://www.w3.org/2000/svg" xmlns:xlink="http://www.w3.org/1999/xlink" preserveAspectRatio="xMidYMid" width="16" height="16" viewBox="0 0 16 16">
  <defs>
    <style>
      .cls-1 {
        fill: #3a68cf;
        fill-rule: evenodd;
      }
    </style>
  </defs>
  <path d="M13.375,15.000 L3.625,15.000 C2.727,15.000 2.000,14.273 2.000,13.375 L2.000,3.625 C2.000,2.727 2.727,2.000 3.625,2.000 L6.062,2.000 C6.960,2.000 7.687,2.727 7.687,3.625 L13.375,3.625 C14.272,3.625 15.000,4.352 15.000,5.250 L15.000,13.375 C15.000,14.273 14.272,15.000 13.375,15.000 ZM14.187,5.250 C14.187,4.801 13.824,4.437 13.375,4.437 L6.875,4.437 L6.875,3.625 C6.875,3.176 6.511,2.812 6.062,2.812 L3.625,2.812 C3.176,2.812 2.813,3.176 2.813,3.625 L2.813,6.062 L14.187,6.062 L14.187,5.250 ZM14.187,6.875 L2.813,6.875 L2.813,13.375 C2.813,13.824 3.176,14.188 3.625,14.188 L13.375,14.188 C13.824,14.188 14.187,13.824 14.187,13.375 L14.187,6.875 Z" class="cls-1"/>
</svg>
