<svg xmlns="http://www.w3.org/2000/svg" xmlns:xlink="http://www.w3.org/1999/xlink" preserveAspectRatio="xMidYMid" width="64" height="64" viewBox="0 0 64 64">
  <defs>
    <style>
      .cls-1 {
        fill: #041b6a;
        fill-rule: evenodd;
      }
    </style>
  </defs>
  <path d="M58.524,51.995 L47.399,51.995 L16.591,51.995 L5.465,51.995 C2.451,51.995 -0.002,49.536 -0.002,46.515 L-0.002,16.488 C-0.002,13.466 2.451,11.007 5.465,11.007 L58.524,11.007 C61.538,11.007 63.991,13.466 63.991,16.488 L63.991,46.515 C63.991,49.536 61.538,51.995 58.524,51.995 ZM17.779,49.612 L46.210,49.612 L46.210,43.940 C46.210,42.232 44.824,40.843 43.120,40.843 L20.869,40.843 C19.165,40.843 17.779,42.232 17.779,43.940 L17.779,49.612 ZM61.614,16.488 C61.614,14.780 60.228,13.390 58.524,13.390 L5.465,13.390 C3.761,13.390 2.375,14.780 2.375,16.488 L2.375,46.515 C2.375,48.223 3.761,49.612 5.465,49.612 L15.402,49.612 L15.402,43.940 C15.402,40.918 17.855,38.459 20.869,38.459 L43.120,38.459 C46.135,38.459 48.588,40.918 48.588,43.940 L48.588,49.612 L58.524,49.612 C60.228,49.612 61.614,48.223 61.614,46.515 L61.614,16.488 ZM43.547,36.553 C40.768,36.553 38.508,34.287 38.508,31.501 C38.508,28.715 40.768,26.449 43.547,26.449 C46.326,26.449 48.588,28.715 48.588,31.501 C48.588,34.287 46.326,36.553 43.547,36.553 ZM43.547,28.832 C42.079,28.832 40.885,30.030 40.885,31.501 C40.885,32.973 42.079,34.170 43.547,34.170 C45.016,34.170 46.210,32.973 46.210,31.501 C46.210,30.030 45.016,28.832 43.547,28.832 ZM20.442,36.553 C17.663,36.553 15.402,34.287 15.402,31.501 C15.402,28.715 17.663,26.449 20.442,26.449 C23.221,26.449 25.481,28.715 25.481,31.501 C25.481,34.287 23.221,36.553 20.442,36.553 ZM20.442,28.832 C18.974,28.832 17.779,30.030 17.779,31.501 C17.779,32.973 18.974,34.170 20.442,34.170 C21.909,34.170 23.104,32.973 23.104,31.501 C23.104,30.030 21.909,28.832 20.442,28.832 Z" class="cls-1"/>
</svg>
